<?xml version="1.0" standalone="no"?>
<!DOCTYPE svg PUBLIC "-//W3C//DTD SVG 20010904//EN"
 "http://www.w3.org/TR/2001/REC-SVG-20010904/DTD/svg10.dtd">
<svg version="1.0" xmlns="http://www.w3.org/2000/svg"
 width="10086.000000pt" height="10086.000000pt" viewBox="0 0 10086.000000 10086.000000"
 preserveAspectRatio="xMidYMid meet">

<g transform="translate(0.000000,10086.000000) scale(0.100000,-0.100000)"
fill="#000000" stroke="none">
<path d="M49805 83514 c-49 -2 -225 -8 -390 -14 -3189 -112 -6435 -800 -9467
-2006 -1124 -447 -2294 -1008 -3368 -1614 -1810 -1022 -3536 -2266 -5070
-3654 -654 -593 -1403 -1342 -1996 -1996 -1797 -1986 -3378 -4343 -4514 -6730
-1110 -2333 -1857 -4647 -2320 -7182 -221 -1212 -358 -2411 -420 -3673 -44
-899 -38 -1997 15 -2935 194 -3394 1002 -6740 2368 -9810 252 -567 651 -1384
932 -1905 1417 -2637 3198 -4983 5355 -7054 1765 -1693 3728 -3135 5890 -4323
3237 -1780 6840 -2926 10455 -3328 1074 -119 2017 -170 3140 -170 1247 0 2286
63 3475 210 3578 445 6974 1544 10155 3288 2577 1413 4977 3288 7033 5497
2377 2553 4236 5490 5542 8755 1622 4057 2281 8501 1910 12880 -393 4624
-1923 9049 -4499 13003 -990 1521 -2194 3022 -3429 4278 -1110 1129 -2053
1954 -3297 2884 -3898 2914 -8525 4777 -13380 5389 -783 99 -1454 155 -2355
197 -215 10 -1576 20 -1765 13z m1170 -1704 c1067 -26 1927 -90 2880 -216
2086 -275 4137 -800 6175 -1581 1175 -450 2426 -1044 3540 -1681 3632 -2075
6751 -5009 9007 -8472 953 -1464 1697 -2864 2331 -4390 1083 -2606 1746 -5390
1946 -8175 78 -1082 89 -2266 31 -3330 -161 -2919 -793 -5808 -1859 -8493
-708 -1784 -1666 -3572 -2769 -5167 -2327 -3368 -5392 -6162 -8907 -8122
-3477 -1938 -7418 -3086 -11390 -3317 -616 -36 -799 -41 -1555 -41 -825 0
-1154 11 -1845 61 -3893 279 -7800 1456 -11160 3362 -2933 1663 -5560 3895
-7646 6497 -995 1242 -1875 2574 -2658 4025 -262 485 -664 1306 -898 1835
-1239 2791 -1984 5786 -2192 8810 -50 713 -60 1047 -61 1855 0 696 6 938 35
1465 131 2376 578 4756 1300 6925 601 1805 1399 3541 2393 5210 1176 1974
2726 3944 4291 5453 1188 1145 2317 2061 3641 2952 3556 2395 7670 3904 11935
4379 1192 133 2307 183 3435 156z"/>
<path d="M51324 79210 c-381 -39 -717 -252 -864 -547 -79 -160 -106 -302 -97
-512 8 -182 42 -302 124 -430 120 -187 376 -354 753 -491 80 -29 206 -75 280
-102 189 -69 363 -156 431 -217 78 -69 104 -129 104 -241 0 -103 -21 -157 -88
-224 -93 -93 -210 -129 -417 -129 -282 0 -462 64 -620 223 -88 88 -145 174
-181 272 l-21 57 -152 -79 c-83 -44 -213 -113 -289 -153 -159 -83 -153 -70
-97 -196 120 -275 330 -493 598 -622 339 -163 827 -201 1201 -92 270 78 523
278 634 499 97 193 126 464 72 682 -47 192 -111 300 -253 425 -111 98 -194
151 -350 221 -132 61 -206 91 -527 212 -422 159 -541 263 -539 469 3 218 195
350 484 332 185 -12 346 -84 458 -206 45 -49 128 -174 144 -217 6 -19 16 -34
21 -34 11 0 547 278 560 290 5 4 -7 39 -26 77 -163 323 -459 577 -789 677
-162 49 -391 72 -554 56z"/>
<path d="M48020 79048 c-206 -22 -376 -41 -376 -42 -4 -4 -834 -3510 -831
-3512 6 -6 702 69 707 77 3 5 37 148 74 319 39 175 74 310 80 310 6 0 312 32
681 70 368 38 670 68 671 67 2 -1 62 -133 134 -292 72 -159 132 -291 134 -293
4 -4 709 68 714 73 1 1 -344 735 -767 1631 l-769 1629 -39 1 c-21 1 -207 -16
-413 -38z m424 -1425 c164 -362 301 -665 303 -673 3 -13 -68 -22 -463 -63
-256 -26 -468 -47 -470 -45 -1 2 62 291 140 643 79 352 152 675 161 718 9 42
20 77 24 77 3 0 141 -296 305 -657z"/>
<path d="M53320 79032 c0 -5 169 -511 376 -1124 207 -612 376 -1124 375 -1137
-1 -20 -224 -1225 -236 -1277 -4 -19 12 -23 318 -80 284 -54 323 -59 329 -45
4 9 60 303 125 654 l118 638 762 912 c419 501 760 913 757 916 -3 4 -166 36
-362 73 l-357 68 -30 -34 c-16 -19 -239 -302 -495 -629 -256 -328 -469 -595
-474 -593 -5 1 -113 342 -239 757 -126 415 -234 759 -240 765 -7 7 -163 39
-347 73 -184 34 -345 65 -357 68 -13 3 -23 1 -23 -5z"/>
<path d="M44530 78454 c-346 -33 -652 -134 -910 -302 -388 -251 -659 -655
-762 -1132 -19 -91 -22 -134 -22 -325 0 -201 2 -231 27 -347 91 -429 289 -778
577 -1020 466 -391 1034 -517 1641 -363 683 173 1143 622 1276 1245 25 120 25
466 0 595 -28 143 -109 436 -122 441 -10 4 -1622 -440 -1632 -449 -2 -2 32
-130 74 -284 l78 -280 475 132 c261 73 486 135 499 140 l24 7 -6 -83 c-23
-329 -251 -616 -603 -760 -437 -179 -853 -153 -1181 73 -83 57 -211 188 -264
268 -92 139 -165 327 -195 503 -22 127 -15 351 14 463 117 443 460 739 952
820 269 45 593 -31 792 -185 l68 -51 228 232 229 232 -56 48 c-132 114 -347
234 -522 291 -217 71 -492 108 -679 91z"/>
<path d="M58383 77782 c-8 -20 -294 -732 -636 -1582 l-623 -1545 305 -123
c167 -68 307 -120 312 -115 4 4 139 334 299 733 160 399 295 728 299 733 4 4
126 -424 270 -950 145 -527 267 -965 272 -974 6 -11 709 -305 709 -296 0 1
-126 477 -280 1057 -243 916 -278 1056 -265 1066 9 6 411 247 895 535 641 381
875 525 862 530 -10 4 -170 68 -355 143 l-337 136 -825 -481 c-454 -265 -827
-480 -829 -478 -2 2 122 316 276 698 154 381 276 697 271 701 -4 5 -142 63
-306 129 l-299 121 -15 -38z"/>
<path d="M39000 76243 c-195 -106 -357 -196 -362 -201 -7 -7 565 -3549 575
-3559 4 -3 596 312 625 333 2 1 -22 145 -53 319 -31 175 -53 321 -48 325 4 4
275 152 602 329 l594 323 51 -49 c28 -27 119 -112 201 -188 83 -77 166 -154
186 -173 l36 -33 318 172 317 173 -28 24 c-15 14 -606 547 -1312 1186 -707
638 -1299 1173 -1316 1187 l-31 25 -355 -193z m910 -1180 c294 -273 536 -499
537 -502 5 -11 -819 -453 -827 -444 -4 4 -62 323 -130 708 -67 385 -124 708
-126 718 -3 9 -2 17 3 17 5 0 249 -224 543 -497z"/>
<path d="M61689 76026 c-624 -90 -1100 -439 -1379 -1010 -120 -244 -169 -442
-177 -707 -7 -241 14 -392 88 -619 146 -447 472 -810 924 -1030 146 -72 265
-114 410 -147 151 -34 430 -43 591 -19 609 89 1074 428 1354 987 222 441 248
902 79 1385 -184 529 -620 929 -1210 1113 -165 52 -490 74 -680 47z m421 -652
c331 -62 648 -294 799 -583 134 -259 160 -571 70 -846 -53 -161 -165 -346
-285 -474 -204 -217 -447 -327 -744 -338 -259 -10 -487 62 -712 224 -219 158
-364 373 -430 641 -31 124 -31 350 0 474 69 279 243 546 462 712 116 87 312
169 469 196 82 14 285 11 371 -6z"/>
<path d="M36680 74831 l-295 -227 -6 -174 c-4 -96 -7 -527 -8 -957 0 -431 -5
-783 -9 -783 -5 0 -212 265 -461 590 -249 324 -455 591 -459 593 -4 2 -125
-86 -268 -197 l-262 -201 32 -40 c18 -22 419 -544 891 -1160 473 -616 925
-1205 1005 -1309 80 -105 149 -189 153 -189 4 1 124 91 266 199 l257 198 -165
215 c-91 119 -306 400 -479 625 -173 225 -316 416 -320 424 -4 11 0 13 18 7
13 -4 451 -124 973 -265 l949 -258 305 234 c168 129 302 234 299 234 -3 0
-476 133 -1052 295 -575 162 -1048 295 -1050 295 -2 0 -5 399 -5 888 -1 488
-4 955 -8 1038 l-6 152 -295 -227z"/>
<path d="M64953 74018 c-583 -702 -2043 -2470 -2045 -2477 -2 -4 328 -282 732
-616 404 -334 744 -616 755 -626 20 -18 23 -15 224 227 111 135 201 247 199
248 -45 35 -989 819 -993 825 -3 5 391 488 875 1072 484 585 880 1066 880
1069 0 6 -487 413 -501 418 -4 2 -61 -61 -126 -140z"/>
<path d="M33170 71778 c-129 -137 -257 -273 -283 -303 l-48 -54 828 -1600
c455 -881 831 -1600 834 -1599 4 2 96 98 204 213 109 116 217 230 241 255 l44
46 -150 279 c-82 154 -149 286 -148 293 4 17 920 990 934 991 6 1 140 -59 298
-133 l288 -135 87 92 c338 355 408 433 398 438 -11 6 -3132 1396 -3242 1444
l-50 21 -235 -248z m1108 -849 c323 -150 625 -289 670 -310 l84 -39 -229 -242
c-125 -133 -273 -289 -328 -345 l-100 -104 -270 508 c-383 719 -427 803 -421
803 4 0 271 -122 594 -271z"/>
<path d="M66725 71879 c-569 -59 -1115 -440 -1397 -974 -134 -256 -194 -529
-185 -850 7 -277 51 -463 166 -700 191 -396 561 -747 946 -898 242 -96 385
-121 675 -121 196 0 239 3 330 23 376 80 688 259 965 553 383 405 541 945 444
1517 -61 362 -249 699 -547 983 -237 224 -524 375 -830 438 -189 38 -386 48
-567 29z m360 -649 c230 -33 431 -131 600 -291 361 -344 462 -824 266 -1273
-44 -100 -133 -220 -245 -332 -174 -172 -339 -270 -551 -325 -78 -20 -113 -23
-255 -23 -144 1 -177 4 -262 27 -384 102 -708 424 -814 809 -32 116 -43 313
-24 439 45 310 234 593 528 792 223 150 495 214 757 177z"/>
<path d="M31290 69568 c-102 -149 -183 -274 -181 -277 3 -3 388 -266 855 -584
468 -318 853 -582 854 -587 2 -6 -27 -10 -70 -10 -192 1 -2342 -32 -2405 -36
l-73 -6 -139 -205 -140 -206 52 -37 c149 -105 2769 -1881 2771 -1878 1 1 85
124 185 272 151 222 180 271 169 282 -7 7 -389 267 -848 579 -459 312 -841
573 -848 579 -15 15 184 20 1503 36 451 6 870 13 931 16 l111 6 140 206 140
207 -1405 955 c-773 525 -1408 956 -1411 958 -4 1 -90 -120 -191 -270z"/>
<path d="M68468 68181 c-763 -526 -1392 -961 -1397 -966 -6 -6 62 -112 178
-281 l187 -271 1400 964 c769 530 1400 967 1402 971 3 10 -361 535 -373 538
-5 1 -634 -428 -1397 -955z"/>
<path d="M70710 67685 c-63 -34 -736 -394 -1495 -800 -759 -406 -1383 -740
-1387 -744 -4 -3 63 -137 149 -297 l156 -291 81 43 c45 24 459 245 921 493
462 247 841 448 843 446 2 -2 -185 -376 -416 -831 -230 -456 -490 -969 -576
-1141 l-157 -311 117 -219 c64 -120 118 -220 120 -221 2 -3 2993 1594 3003
1604 3 2 -292 566 -305 583 -2 2 -416 -218 -920 -488 -505 -270 -920 -489
-922 -487 -2 2 253 513 567 1135 314 622 571 1136 571 1142 0 10 -179 352
-220 420 l-15 27 -115 -63z"/>
<path d="M28845 65441 l-176 -374 118 -118 c65 -65 645 -636 1288 -1268 1081
-1063 1171 -1149 1180 -1128 5 12 74 157 152 322 l141 300 -106 105 c-59 58
-164 160 -234 227 l-127 123 291 617 c160 340 291 619 292 620 1 0 145 -16
321 -37 176 -21 322 -36 325 -34 2 3 73 150 156 327 152 322 152 322 125 325
-23 3 -2044 211 -3126 322 -214 22 -402 41 -417 43 -26 3 -31 -6 -203 -372z
m1455 -412 c388 -45 707 -83 709 -85 5 -4 -390 -843 -399 -849 -8 -5 -1068
1005 -1069 1018 -1 5 11 6 27 3 15 -3 344 -42 732 -87z"/>
<path d="M53524 64444 c-51 -53 -143 -249 -303 -645 -249 -618 -335 -784 -433
-835 -25 -13 -32 -12 -65 5 -66 34 -122 90 -239 242 -157 203 -205 239 -272
205 -70 -36 -47 -107 131 -398 52 -84 145 -252 207 -373 63 -121 206 -380 318
-575 112 -195 222 -391 244 -435 177 -351 498 -1182 736 -1905 87 -262 579
-1850 587 -1892 14 -72 -31 -160 -99 -195 -17 -9 -121 -36 -230 -59 -223 -48
-275 -71 -313 -139 -27 -47 -30 -119 -8 -171 8 -19 129 -185 269 -369 465
-607 663 -906 814 -1225 216 -458 295 -856 248 -1255 -63 -521 -230 -1253
-631 -2760 -304 -1142 -306 -1152 -351 -1625 -103 -1107 -133 -1589 -136
-2190 0 -173 -4 -317 -9 -320 -5 -3 -20 -564 -33 -1245 -14 -682 -28 -1329
-31 -1437 l-6 -198 558 0 558 0 179 -1381 c140 -1086 177 -1393 171 -1437 -9
-76 -34 -129 -82 -175 -33 -32 -55 -42 -135 -62 -455 -115 -809 -433 -898
-806 l-19 -82 29 -155 c32 -173 62 -248 129 -324 54 -60 132 -112 211 -139
112 -37 166 -32 770 80 575 107 622 117 710 150 145 54 320 192 416 328 59 81
117 208 145 313 18 68 23 111 23 215 0 116 -6 162 -57 430 -46 245 -89 549
-232 1655 -96 745 -175 1363 -175 1373 0 16 29 17 470 17 l470 0 2 973 3 972
203 -900 c112 -495 205 -907 208 -916 4 -14 61 -17 522 -23 284 -4 517 -8 518
-9 1 -1 171 -550 378 -1220 293 -948 376 -1230 376 -1270 -1 -129 -75 -192
-338 -286 -303 -108 -519 -272 -610 -463 -49 -101 -62 -161 -62 -281 0 -105
13 -165 76 -367 55 -173 77 -219 138 -287 94 -105 209 -156 351 -156 89 0 99
3 660 176 601 186 695 222 812 311 172 130 298 328 348 546 21 95 22 279 1
375 -17 77 -248 832 -264 862 -12 22 -634 2035 -630 2038 2 2 294 -2 651 -8
356 -5 650 -8 653 -5 3 3 -335 788 -751 1744 -808 1858 -893 2040 -1235 2659
-355 642 -491 948 -580 1307 -57 230 -78 461 -60 662 32 374 114 525 531 992
70 78 154 177 189 220 34 43 66 83 70 88 10 10 2247 -2208 2257 -2238 21 -64
-8 -271 -59 -416 -63 -180 -76 -807 -20 -957 24 -66 41 -73 91 -40 81 54 98
119 110 417 7 191 10 220 30 257 27 54 59 75 121 81 144 14 241 -113 438 -568
148 -343 215 -461 277 -486 48 -19 75 -3 75 43 0 49 -13 90 -94 301 -96 250
-119 336 -114 427 3 65 7 78 30 102 67 67 165 11 491 -279 274 -245 351 -294
397 -253 54 49 32 77 -502 653 -109 117 -198 220 -198 229 0 35 113 10 440
-100 453 -153 594 -186 645 -153 14 9 25 25 25 35 0 31 -74 88 -182 140 -462
221 -512 250 -570 328 -22 28 -28 48 -28 86 0 42 5 54 33 82 18 18 51 38 72
44 58 16 211 13 275 -5 30 -8 101 -18 156 -21 94 -5 103 -4 123 16 63 63 -19
158 -169 196 -84 22 -293 34 -379 22 -36 -5 -113 -7 -171 -5 -94 4 -111 7
-166 36 -88 45 -182 124 -398 333 -321 312 -634 692 -1071 1299 -343 477 -683
917 -1019 1320 -206 248 -284 335 -731 820 -274 298 -332 366 -361 425 -86
173 -43 366 116 525 44 45 100 89 138 108 34 18 62 37 62 42 0 21 150 42 278
38 126 -4 128 -5 432 -96 437 -131 560 -152 875 -152 389 0 731 70 1084 221
318 137 636 378 774 587 110 166 198 459 218 722 28 375 35 407 110 481 56 56
83 64 213 56 80 -4 193 -32 304 -75 19 -7 -40 109 -93 183 -63 88 -136 152
-268 234 -65 40 -144 97 -175 126 l-57 53 62 65 c140 150 225 301 320 572 30
85 113 368 109 372 -2 2 -88 -108 -191 -244 -104 -136 -190 -243 -192 -237 -1
5 -28 124 -58 264 -89 403 -129 522 -258 775 -165 322 -396 623 -766 999 -413
418 -941 857 -1597 1329 l-51 37 -49 -37 c-168 -126 -296 -257 -344 -353 -35
-67 -37 -169 -10 -358 30 -209 25 -260 -40 -390 -47 -92 -150 -239 -270 -383
-30 -36 -95 -123 -144 -193 -233 -332 -391 -471 -603 -527 -67 -18 -122 -22
-383 -29 -168 -4 -306 -8 -307 -9 -2 -1 -3 -127 -3 -281 l0 -279 -42 -11
c-360 -94 -443 -142 -552 -324 -37 -62 -66 -166 -66 -240 0 -110 43 -247 153
-487 110 -239 118 -276 124 -554 6 -268 -2 -320 -69 -448 -74 -142 -218 -263
-378 -318 -57 -19 -91 -23 -272 -27 -171 -3 -222 -1 -284 13 -328 73 -651 449
-1040 1210 -203 398 -321 662 -754 1689 -552 1310 -760 1744 -1023 2137 -102
153 -186 315 -227 439 -29 85 -31 102 -30 223 1 150 7 188 44 251 61 104 192
187 386 246 283 84 303 92 332 120 32 33 36 70 10 93 -30 28 -105 20 -298 -28
-264 -66 -352 -70 -413 -19 -36 30 -49 81 -31 124 32 76 142 145 475 295 270
121 338 173 304 233 -61 109 -312 32 -844 -258 -186 -102 -225 -120 -225 -104
0 3 77 112 172 243 313 429 548 797 548 856 0 57 -102 -5 -330 -200 -129 -110
-320 -285 -458 -419 l-104 -101 -16 30 c-22 40 -28 217 -12 343 6 53 30 198
52 322 30 165 41 254 42 334 1 127 -7 137 -60 80z"/>
<path d="M69230 63493 c0 -1 52 -151 115 -334 63 -183 115 -334 115 -335 0 -2
147 -4 328 -4 l327 0 223 -647 c123 -355 219 -649 214 -652 -48 -32 -502 -386
-502 -392 0 -8 228 -671 232 -674 2 -2 307 239 678 534 371 295 1004 796 1405
1115 402 318 734 582 739 587 5 5 -47 172 -125 397 l-134 390 -800 6 c-783 6
-2815 13 -2815 9z m3015 -663 c-3 -5 -209 -166 -458 -358 -249 -192 -508 -392
-577 -445 -69 -53 -128 -93 -131 -89 -6 6 -309 878 -309 888 0 2 208 5 463 7
254 1 587 3 740 5 178 1 276 -1 272 -8z"/>
<path d="M27609 62253 c-215 -705 -322 -1070 -315 -1074 32 -19 589 -180 595
-173 5 5 97 303 207 662 109 358 201 652 204 651 3 0 393 -453 867 -1007 l862
-1007 253 -76 c139 -42 254 -74 255 -70 19 54 663 2175 663 2184 0 8 -111 47
-292 102 -161 48 -297 89 -301 89 -5 1 -103 -307 -218 -684 -115 -377 -210
-689 -212 -694 -2 -5 -393 446 -871 1001 l-867 1010 -237 73 c-130 40 -244 75
-252 77 -12 3 -82 -217 -341 -1064z"/>
<path d="M43180 63224 c-19 -2 -80 -9 -135 -15 -819 -87 -1538 -535 -2031
-1264 -203 -300 -385 -684 -504 -1063 l-42 -133 -36 21 c-62 37 -193 87 -277
106 -100 23 -281 23 -381 1 -423 -94 -827 -454 -1090 -970 -292 -573 -337
-1184 -119 -1617 84 -167 235 -339 382 -434 174 -112 230 -132 688 -241 154
-37 347 -90 429 -117 475 -156 664 -361 591 -641 -20 -78 -82 -197 -149 -287
-31 -41 -56 -77 -56 -80 0 -3 9 -20 20 -38 26 -42 61 -55 137 -49 132 10 339
139 523 326 166 169 268 325 331 511 30 87 33 105 33 215 0 106 -3 128 -27
187 -14 37 -37 84 -51 105 -27 40 -33 81 -16 114 13 23 69 26 127 5 22 -8 150
-67 284 -131 373 -179 565 -253 829 -320 236 -59 346 -74 615 -84 186 -7 216
-10 260 -30 95 -42 146 -116 166 -241 22 -133 -27 -330 -109 -432 -91 -114
-505 -454 -1182 -968 -672 -510 -1032 -805 -1535 -1261 -71 -65 -186 -159
-255 -210 -238 -176 -457 -361 -745 -629 -371 -346 -969 -976 -1210 -1275 -92
-113 -148 -175 -515 -565 -553 -587 -724 -794 -827 -998 -42 -83 -47 -101 -51
-175 -8 -162 59 -342 175 -467 90 -97 153 -127 299 -141 224 -22 319 31 573
319 149 169 221 235 246 226 32 -12 36 -53 29 -251 -6 -170 -5 -198 10 -238
27 -70 86 -91 177 -64 34 11 40 18 55 63 9 28 61 149 115 268 110 244 151 352
173 462 19 89 21 225 5 332 -20 133 15 302 99 469 233 468 874 1020 1614 1391
599 300 1171 454 1685 454 l173 0 0 -33 c0 -19 -18 -350 -40 -736 -22 -386
-40 -710 -40 -721 0 -29 -114 -174 -225 -285 -55 -55 -192 -182 -305 -282
-194 -171 -524 -508 -1241 -1263 -753 -793 -1326 -1476 -1691 -2016 -37 -56
-127 -171 -200 -255 -220 -258 -289 -359 -333 -490 -36 -104 -33 -125 25 -211
142 -214 436 -454 833 -683 101 -59 136 -84 132 -95 -11 -28 -149 -238 -274
-418 -193 -274 -379 -526 -747 -1007 -185 -242 -428 -562 -540 -711 -112 -149
-218 -282 -236 -296 -53 -39 -102 -65 -281 -149 -218 -101 -341 -183 -447
-296 -184 -197 -305 -429 -317 -610 -9 -128 6 -157 120 -236 327 -225 650
-396 1347 -712 179 -81 444 -205 589 -276 151 -75 284 -134 313 -139 124 -24
234 33 294 151 50 99 66 231 43 355 -16 88 -90 222 -281 511 -192 292 -260
407 -318 543 -44 100 -94 276 -88 310 2 11 404 428 893 927 490 498 925 947
968 997 179 210 326 295 490 284 40 -3 97 -15 127 -26 30 -11 97 -37 147 -57
238 -91 540 -157 923 -201 185 -22 800 -30 1057 -15 325 19 664 54 991 102 73
10 139 19 146 19 9 0 16 -21 21 -67 13 -131 75 -612 129 -1003 130 -935 156
-1211 163 -1732 6 -397 -2 -583 -37 -845 -10 -78 -28 -173 -40 -210 -39 -127
-24 -303 41 -491 36 -101 141 -319 199 -410 33 -53 43 -62 62 -57 13 3 473 93
1023 200 550 107 1041 203 1090 215 184 43 330 139 384 255 32 66 39 186 17
272 -52 205 -247 433 -431 505 -23 9 -92 21 -155 27 -360 36 -611 133 -837
323 l-83 69 0 62 c0 34 34 726 75 1537 41 811 75 1492 75 1513 0 36 1 37 36
37 87 0 254 64 448 171 136 76 303 180 698 432 567 362 780 475 961 508 82 15
79 -7 37 284 -185 1278 -777 2912 -1663 4591 l-105 199 -26 285 c-45 493 -58
736 -59 1115 -1 445 19 730 79 1095 76 467 246 855 553 1265 212 281 466 547
1031 1077 409 384 868 840 1007 999 285 329 543 677 786 1059 124 195 173 298
337 705 230 572 303 700 700 1230 208 276 305 416 425 610 116 187 136 235 98
235 -38 0 -206 -117 -421 -294 -52 -42 -98 -73 -103 -70 -27 17 11 115 176
448 80 160 147 308 151 329 6 36 6 37 -25 37 -58 0 -157 -108 -345 -372 -220
-312 -266 -348 -266 -211 0 87 22 176 110 448 108 334 132 454 95 485 -13 11
-21 8 -50 -20 -42 -41 -93 -138 -215 -410 -101 -225 -152 -325 -213 -412 -38
-55 -57 -71 -57 -47 0 5 15 110 34 232 61 387 67 529 27 578 -15 19 -20 20
-40 9 -38 -20 -84 -139 -170 -437 -118 -413 -177 -561 -249 -624 -37 -33 -69
-33 -103 -3 -54 49 -119 233 -173 490 -18 88 -38 169 -43 179 -10 17 -12 16
-26 -11 -59 -114 -109 -559 -88 -783 8 -87 20 -141 56 -246 139 -412 110 -806
-89 -1210 -126 -256 -279 -459 -535 -715 -384 -382 -835 -698 -1542 -1079
-518 -279 -821 -353 -1889 -462 -450 -45 -580 -36 -580 44 0 75 100 164 435
389 376 253 601 432 826 657 259 259 382 447 451 687 29 104 31 305 4 404 -57
206 -150 348 -375 570 -153 151 -193 213 -232 365 -28 110 -36 321 -18 495 21
205 17 452 -10 577 -125 592 -580 1121 -1256 1463 -317 160 -669 267 -1036
316 -109 14 -516 27 -589 18z"/>
<path d="M50020 25189 c-103 -41 -162 -152 -199 -378 -41 -242 -144 -462 -253
-541 -72 -52 -145 -39 -237 41 -51 45 -87 50 -119 16 -27 -29 -29 -79 -6 -192
27 -138 14 -189 -91 -349 -96 -149 -152 -200 -475 -431 -377 -270 -581 -387
-815 -464 -148 -49 -218 -63 -465 -96 -376 -49 -420 -61 -532 -149 -75 -60
-100 -106 -142 -261 -19 -72 -51 -166 -71 -210 -107 -232 -135 -350 -135 -560
0 -164 14 -259 86 -585 83 -380 102 -530 85 -668 -20 -158 -93 -286 -385 -675
-211 -282 -303 -417 -343 -504 -25 -52 -27 -68 -26 -163 3 -189 60 -588 129
-905 28 -127 35 -178 33 -250 -5 -221 -1 -236 120 -449 l71 -123 0 -94 c0
-155 25 -208 128 -270 185 -111 632 -254 833 -266 89 -5 101 -4 152 20 30 14
82 43 114 65 131 89 193 109 429 142 188 25 236 39 314 91 121 81 195 203 354
582 415 986 1633 4138 1780 4605 42 134 36 252 -28 529 -46 200 -45 273 5 273
12 0 67 -24 123 -54 123 -66 209 -96 277 -96 44 0 55 4 84 33 48 48 61 121 45
252 -16 141 -54 353 -106 610 -153 741 -322 1262 -454 1396 -70 71 -204 108
-280 78z"/>
<path d="M41245 24443 c-935 -45 -1715 -383 -2356 -1023 -443 -442 -734 -928
-898 -1499 -175 -611 -186 -1335 -30 -1956 190 -754 652 -1436 1306 -1926 495
-371 1078 -595 1758 -675 214 -26 760 -26 965 -1 685 83 1206 289 1700 671
133 103 403 370 509 504 222 281 392 601 505 947 64 200 101 368 137 630 18
126 22 219 26 588 l5 437 -1711 0 -1711 0 0 -590 0 -590 1035 0 c712 0 1035
-3 1035 -10 0 -21 -73 -206 -111 -283 -85 -169 -193 -320 -323 -451 -391 -395
-946 -584 -1656 -563 -319 10 -537 46 -802 134 -712 235 -1238 824 -1391 1558
-42 199 -51 304 -51 555 1 270 20 424 79 648 208 784 848 1389 1638 1546 187
38 304 49 522 49 301 0 532 -37 795 -128 210 -73 483 -225 654 -364 109 -89
254 -246 327 -353 l66 -97 529 305 c291 168 548 316 571 330 l42 25 -36 57
c-463 726 -1295 1278 -2193 1457 -296 58 -631 83 -935 68z"/>
<path d="M53931 24439 c-521 -40 -990 -227 -1373 -548 -397 -333 -608 -758
-650 -1307 -27 -363 34 -726 168 -1000 131 -268 316 -473 584 -646 382 -247
655 -362 1385 -583 747 -226 1058 -364 1228 -545 178 -188 219 -480 101 -719
-39 -79 -145 -200 -222 -253 -169 -116 -398 -175 -727 -185 -458 -14 -821 81
-1116 294 -105 75 -269 245 -342 355 -63 95 -154 264 -182 341 -10 26 -21 46
-26 45 -4 -2 -262 -151 -573 -333 -495 -289 -564 -332 -559 -350 3 -11 28 -72
55 -135 152 -357 403 -687 708 -932 366 -293 818 -483 1333 -558 303 -45 740
-51 1032 -16 605 75 1094 293 1469 656 391 378 575 862 553 1450 -7 179 -24
284 -74 460 -62 216 -126 360 -225 508 -95 142 -330 353 -566 509 -233 154
-586 293 -1522 598 -391 128 -710 263 -859 364 -192 131 -304 360 -287 591 11
169 67 290 186 403 121 116 250 180 445 219 129 26 385 28 525 5 451 -76 770
-318 1015 -770 45 -84 48 -87 69 -74 11 7 262 152 556 322 294 169 536 309
538 311 6 4 -82 170 -144 272 -377 609 -976 1040 -1656 1192 -260 58 -573 80
-847 59z"/>
<path d="M73291 24439 c-897 -57 -1676 -418 -2306 -1070 -564 -584 -873 -1245
-966 -2069 -18 -152 -18 -658 0 -810 76 -677 290 -1229 671 -1735 118 -156
170 -218 303 -354 201 -204 367 -343 582 -485 462 -307 929 -478 1510 -553
199 -25 710 -25 915 0 833 104 1512 441 2101 1043 575 589 893 1271 981 2104
16 158 16 617 -1 770 -80 737 -326 1327 -779 1872 -104 125 -354 376 -477 480
-709 594 -1569 869 -2534 807z m549 -1310 c546 -63 1030 -318 1387 -734 288
-334 452 -712 515 -1185 18 -141 15 -518 -5 -670 -66 -481 -257 -887 -572
-1218 -279 -294 -625 -498 -1010 -597 -215 -55 -338 -69 -610 -69 -271 -1
-390 13 -610 69 -781 200 -1392 841 -1550 1630 -78 390 -71 804 20 1165 98
387 279 705 565 990 382 383 849 593 1400 630 128 9 341 4 470 -11z"/>
<path d="M23830 23670 l0 -640 1385 0 c824 0 1385 -4 1385 -9 0 -5 -639 -1015
-1420 -2244 l-1420 -2235 0 -531 0 -531 2310 0 2310 0 0 640 0 640 -1453 2
-1454 3 1424 2245 1423 2245 0 528 0 527 -2245 0 -2245 0 0 -640z"/>
<path d="M29935 20973 c-642 -1836 -1180 -3373 -1196 -3415 l-28 -78 724 0
723 0 205 613 204 612 1368 0 1368 0 205 -612 204 -613 728 0 729 0 -15 43
c-27 75 -2346 6670 -2366 6730 l-20 57 -832 0 -833 0 -1168 -3337z m2478 395
c257 -766 467 -1396 467 -1400 0 -5 -423 -8 -940 -8 -517 0 -940 3 -940 8 0
14 935 2792 940 2792 3 0 216 -627 473 -1392z"/>
<path d="M56770 24305 c0 -2 524 -941 1165 -2085 l1165 -2082 0 -1329 0 -1329
665 0 665 0 0 1333 0 1333 1141 2029 c627 1117 1154 2054 1170 2083 l30 52
-758 0 -758 -1 -740 -1424 c-407 -784 -744 -1423 -748 -1422 -4 1 -341 641
-747 1422 l-739 1420 -756 3 c-415 1 -755 0 -755 -3z"/>
<path d="M64890 20895 l0 -3415 670 0 670 0 2 1601 3 1600 1220 -1600 1220
-1601 767 0 c423 0 768 2 768 4 0 3 -587 791 -1305 1751 -718 960 -1305 1750
-1305 1756 0 5 567 753 1259 1662 l1259 1652 -761 3 c-419 1 -767 0 -772 -2
-6 -2 -537 -681 -1180 -1510 l-1170 -1506 -3 1510 -2 1510 -670 0 -670 0 0
-3415z"/>
<path d="M36570 18991 c-165 -31 -300 -101 -424 -220 -178 -172 -256 -353
-256 -596 0 -241 77 -422 252 -592 124 -120 246 -186 407 -219 110 -22 284
-15 389 15 254 73 480 290 558 536 107 336 3 684 -272 905 -82 66 -205 130
-299 155 -69 18 -288 28 -355 16z"/>
<path d="M62770 18985 c-296 -61 -547 -295 -632 -591 -29 -103 -32 -323 -5
-424 72 -268 281 -490 551 -583 87 -30 97 -31 251 -31 156 0 163 1 260 34 230
79 428 269 512 490 44 118 57 202 51 339 -4 95 -11 133 -37 211 -95 282 -343
501 -628 556 -91 17 -235 17 -323 -1z"/>
</g>
</svg>
